<svg width="256" height="256" viewBox="0 0 256 256" xmlns="http://www.w3.org/2000/svg">
  <rect width="256" height="256" rx="64" fill="black" />
  <svg x="32" y="32" width="192" height="192" viewBox="0 0 256 256">
    <path fill="white" d="M216,88h-8V64a16,16,0,0,0-16-16H168V40a8,8,0,0,0-16,0v8H104V40a8,8,0,0,0-16,0v8H64A16,16,0,0,0,48,64V88H40a8,8,0,0,0,0,16h8v48H40a8,8,0,0,0,0,16h8v24a16,16,0,0,0,16,16H88v8a8,8,0,0,0,16,0v-8h48v8a8,8,0,0,0,16,0v-8h24a16,16,0,0,0,16-16V168h8a8,8,0,0,0,0-16h-8V104h8a8,8,0,0,0,0-16Zm-24,80H64V64H192ZM160,96H96a8,8,0,0,0-8,8v48a8,8,0,0,0,8,8h64a8,8,0,0,0,8-8V104A8,8,0,0,0,160,96Zm-8,48H104V112h48Z" />
  </svg>
</svg>
